<?xml version="1.0" encoding="utf-8"?>
<!-- Generator: Adobe Illustrator 18.1.1, SVG Export Plug-In . SVG Version: 6.00 Build 0)  -->
<svg version="1.1" id="Layer_1" xmlns="http://www.w3.org/2000/svg" xmlns:xlink="http://www.w3.org/1999/xlink" x="0px" y="0px"
	 viewBox="0 0 200 23" enable-background="new 0 0 200 23" xml:space="preserve">
<g>
	<g>
		<polygon fill="#FFFFFF" points="0.8,22.7 0.8,1.8 0.8,0.4 25.5,0.4 25.5,5.3 6.2,5.3 6.2,9.1 22.8,9.1 22.8,13.9 6.2,13.9 
			6.2,22.7 0.8,22.7 		"/>
	</g>
	<g>
		<path fill="#FFFFFF" d="M83.3,22.7v-7.6c0-0.7-0.6-1-0.6-1c-0.3-0.2-1-0.2-2.2-0.2h0.3H69.3v8.8h-5.5V1.8V0.4h17
			c2.9,0,5,0.4,6.4,1.8l0,0c1.4,1.4,1.6,3.2,1.6,5.1l0,0v1.6c0,1.6-0.8,3.1-1.8,4l0.2,0.1c0.4,0.2,0.6,0.5,0.6,0.5
			c0.8,1,0.8,1.8,0.8,2.9l0,0v6.4H83.3L83.3,22.7z M80.3,9.1c1.3,0,2.1,0,2.5-0.2c0,0,0.6-0.3,0.6-1l0-1.5c0-0.7-0.6-1-0.6-1
			c-0.4-0.2-1.1-0.2-2.9-0.2l0,0H69.3v3.8h11.3H80.3z"/>
	</g>
	<g>
		<path fill="#FFFFFF" d="M96.8,22.7V5.3h-5.2v-5h20.5v5l-9.9,0v17.4H96.8L96.8,22.7z M98.2,3.9V3.2V3.9L98.2,3.9z"/>
	</g>
	<g>
		<path fill="#FFFFFF" d="M183,22.7V5.3h-5.2v-5h20.5v5l-9.9,0v17.4H183L183,22.7z M184.4,3.9V3.2V3.9L184.4,3.9z"/>
	</g>
	<g>
		<polygon fill="#FFFFFF" points="114.8,22.7 114.8,1.8 114.8,0.4 120.3,0.4 120.3,22.7 114.8,22.7 		"/>
	</g>
	<g>
		<polygon fill="#FFFFFF" points="153.2,22.7 153.2,1.8 153.2,0.4 175.2,0.4 175.2,5.3 158.6,5.3 158.6,9.1 170.1,9.1 170.1,13.9 
			158.6,13.9 158.6,17.7 175.3,17.7 175.3,22.7 153.2,22.7 		"/>
	</g>
	<path fill="#FFFFFF" d="M129.8,22.7h-5.5V0.4l17.6,0c0,0,3.2-0.1,5.3,1.9c0,0,2.1,1.8,2.1,6v14.4h-5.5V7.9c0,0,0.1-1.5-0.4-2
		c0,0-0.5-0.6-1.3-0.6h-12.3L129.8,22.7z"/>
	<g>
		<path fill="#FFFFFF" d="M197.1,22.7c-1.5,0-2.7-1.2-2.7-2.7c0-1.5,1.2-2.7,2.7-2.7c1.5,0,2.7,1.2,2.7,2.7
			C199.8,21.5,198.6,22.7,197.1,22.7z M197.1,17.6c-1.3,0-2.4,1.1-2.4,2.4c0,1.3,1.1,2.4,2.4,2.4c1.3,0,2.4-1.1,2.4-2.4
			C199.5,18.7,198.4,17.6,197.1,17.6z M196.1,18.4h1.3c0.5,0,0.9,0.1,0.9,0.8c0,0.4-0.1,0.5-0.4,0.7c0.3,0.2,0.3,0.2,0.4,0.8
			c0,0.4,0,0.5,0.1,0.7H198l-0.1-0.4c-0.1-0.4,0.1-0.9-0.5-0.9h-1v1.3h-0.4V18.4z M196.5,18.7v1h1c0.3,0,0.5-0.1,0.5-0.5
			c0.1-0.5-0.3-0.6-0.5-0.6H196.5z"/>
	</g>
	<g>
		<rect x="27.9" y="8.5" fill="#FFFFFF" width="9.1" height="6"/>
		<rect x="39.4" y="0.1" fill="#FFFFFF" width="8.9" height="6"/>
		<rect x="39.4" y="17" fill="#FFFFFF" width="8.9" height="6"/>
		<rect x="50.8" y="8.5" fill="#FFFFFF" width="9.1" height="6"/>
		<path fill="#FFFFFF" d="M31.6,0.1c-1.9,0.5-3.4,2.6-3.7,5.3v0.7h9.1v-6H31.6z"/>
		<path fill="#FFFFFF" d="M27.9,17v0.7c0.3,2.6,1.7,4.6,3.5,5.2h5.6v-6H27.9z"/>
		<path fill="#FFFFFF" d="M59.8,6.1V5.4c-0.3-2.7-1.8-4.8-3.7-5.3h-5.4v6H59.8z"/>
		<path fill="#FFFFFF" d="M56.4,22.9c1.8-0.6,3.2-2.6,3.5-5.2V17h-9.1v6H56.4z"/>
	</g>
</g>
</svg>
