<?xml version="1.0" encoding="utf-8"?>
<!-- Generator: Adobe Illustrator 18.1.1, SVG Export Plug-In . SVG Version: 6.00 Build 0)  -->
<svg version="1.1" id="Layer_1" xmlns="http://www.w3.org/2000/svg" xmlns:xlink="http://www.w3.org/1999/xlink" x="0px" y="0px"
	 viewBox="0 0 200 54" enable-background="new 0 0 200 54" xml:space="preserve">
<g>
	<polygon fill="#FFFFFF" points="98.5,43.1 99.7,43.1 106,51.7 106,43.1 107.1,43.1 107.1,53.6 106.1,53.6 99.6,44.7 99.6,53.6 
		98.5,53.6 	"/>
	<polygon fill="#FFFFFF" points="109.7,43.1 116.7,43.1 116.7,44.2 110.9,44.2 110.9,47.6 116.5,47.6 116.5,48.7 110.9,48.7 
		110.9,52.6 116.7,52.6 116.7,53.6 109.7,53.6 	"/>
	<polygon fill="#FFFFFF" points="122.3,44.2 118.3,44.2 118.3,43.1 127.3,43.1 127.3,44.2 123.4,44.2 123.4,53.6 122.3,53.6 	"/>
	<polygon fill="#FFFFFF" points="128.7,43.1 129.8,43.1 132.5,51.8 135.4,43.1 136.3,43.1 139.1,51.8 141.9,43.1 143,43.1 
		139.6,53.6 138.6,53.6 135.8,44.9 133,53.6 132,53.6 	"/>
	<g>
		<path fill="#FFFFFF" d="M144,48.3c0-3.7,1.9-5.4,5.2-5.4c3.4,0,5.3,1.7,5.3,5.4c0,3.7-1.9,5.4-5.3,5.4
			C145.9,53.7,144,52.1,144,48.3 M153.4,48.3c0-2.8-1.3-4.3-4.2-4.3c-2.8,0-4.1,1.5-4.1,4.3c0,2.8,1.3,4.4,4.1,4.4
			C152.1,52.7,153.4,51.2,153.4,48.3"/>
		<path fill="#FFFFFF" d="M161,49.3h-3.1v4.3h-1.1V43.1h4.5c2.4,0,3.5,1,3.5,3c0,1.8-0.9,2.9-2.7,3.1l2.5,4.3h-1.2L161,49.3z
			 M161.3,48.3c1.5,0,2.4-0.5,2.4-2.1c0-1.6-0.9-2-2.4-2h-3.4v4.1H161.3z"/>
		<polygon fill="#FFFFFF" points="170.4,48 168.3,50.3 168.3,53.6 167.2,53.6 167.2,43.1 168.3,43.1 168.3,48.9 173.6,43.1 
			174.8,43.1 171.1,47.2 175.3,53.6 174.1,53.6 		"/>
		<path fill="#FFFFFF" d="M176.3,52.5l0.6-0.8c1.3,0.8,2.5,1.1,3.7,1.1c2.2,0,3.1-0.6,3.1-2.1c0-1.5-1.2-1.7-3.1-2
			c-2.3-0.4-3.8-0.8-3.8-2.9c0-2,1.3-2.8,3.8-2.8c1.6,0,2.8,0.4,3.6,0.9l-0.6,0.9c-0.7-0.5-1.9-0.8-3-0.8c-1.9,0-2.7,0.5-2.7,1.8
			c0,1.3,1.1,1.6,3,1.9c2.3,0.4,3.9,0.7,3.9,3c0,2.1-1.3,3.1-4.2,3.1C179,53.7,177.6,53.4,176.3,52.5"/>
		<path fill="#FFFFFF" d="M195.7-0.1c-14.7,0-15.3,6.6-15.3,15.9v22.8h3.5V15.8c0-7-0.3-12.6,11.9-12.6c1.3,0,2.5,0.1,3.5,0.2V0
			C198.1-0.1,197-0.1,195.7-0.1"/>
		<path fill="#FFFFFF" d="M24.2,23.7V0.6h3.5v23.2c0,6.7-0.1,12.3,12.1,12.3c12.1,0,11.9-5.6,11.9-12.6V0.6h3.5v22.8
			c0,9.3-0.6,15.9-15.3,15.9C25.1,39.3,24.2,32.8,24.2,23.7"/>
		<path fill="#FFFFFF" d="M92.1,15.5v23.1h-3.5V15.4c0-6.7,0.1-12.3-12.1-12.3c-12.1,0-11.9,5.6-11.9,12.6v22.8h-3.5V15.8
			c0-9.3,0.6-15.9,15.3-15.9C91.2-0.1,92.1,6.5,92.1,15.5"/>
		<rect x="98.5" y="0.7" fill="#FFFFFF" width="3.4" height="37.9"/>
		<path fill="#FFFFFF" d="M108.3,0.7H126c8.8,0,12.8,4.4,12.8,12.1c0,7.8-3.9,12.6-12.8,12.6h-14.3v13.2h-3.4V0.7z M126.1,22
			c6.1,0,9.2-3,9.2-9s-3.3-8.9-9.3-8.9h-14.2V22H126.1z"/>
	</g>
	<g>
		<path fill="#FFFFFF" d="M142.7,19.5c0-11.2,3.2-19.8,17.5-19.8c14.8,0,15.3,9.9,15.2,20.4h-29.3c0.1,9.2,2.4,16.1,14.4,16.1
			c6.4,0,9.3-1.7,12.4-4l1.9,2.6c-3.5,2.6-7.6,4.6-14.4,4.6C145.5,39.3,142.7,30.7,142.7,19.5 M146.2,16.9H172
			c-0.3-7.6-0.8-14-11.9-14C149.5,2.9,146.6,8.7,146.2,16.9"/>
		<path fill="#FFFFFF" d="M2.9,46.8c14.7,0,15.3-6.6,15.3-15.9V0.6h-3.5v30.3c0,7,0.3,12.6-11.9,12.6c-0.5,0-0.9,0-1.3,0v3.3
			C2,46.8,2.5,46.8,2.9,46.8"/>
	</g>
	<g>
		<path fill="#FFFFFF" d="M191.5,38.7c-1.3,0-2.4-1.1-2.4-2.4c0-1.3,1.1-2.4,2.4-2.4c1.3,0,2.4,1.1,2.4,2.4
			C193.8,37.7,192.8,38.7,191.5,38.7 M191.5,34.3c-1.2,0-2.1,0.9-2.1,2.1c0,1.1,0.9,2.1,2.1,2.1c1.1,0,2.1-0.9,2.1-2.1
			C193.5,35.2,192.6,34.3,191.5,34.3"/>
		<path fill="#FFFFFF" d="M191.6,36.7h-0.8v1.1h-0.4V35h1.2c0.7,0,1,0.3,1,0.8c0,0.4-0.2,0.8-0.7,0.8l0.6,1.1h-0.4L191.6,36.7z
			 M191.7,36.3c0.4,0,0.6-0.1,0.6-0.5c0-0.4-0.2-0.5-0.6-0.5h-0.8v1H191.7z"/>
	</g>
</g>
</svg>
